<svg width="1553" height="286" viewBox="0 0 1553 286" fill="none" xmlns="http://www.w3.org/2000/svg">
<path d="M204.075 47H129V233H204.075C262.925 233 305 194.706 305 139.453C305 85.0206 262.925 47 204.075 47ZM204.075 191.424H175.475V88.5765H204.075C234.6 88.5765 257.975 110.732 257.975 139.453C257.975 168.994 234.6 191.424 204.075 191.424Z" fill="#0F6BFF"/>
<path d="M456.798 233H506L427.277 47H382.996L304 233H353.202L365.502 200.997H444.225L456.798 233ZM380.536 162.429L404.863 99.7912L429.191 162.429H380.536Z" fill="#0F6BFF"/>
<path d="M648.035 47V151.762L558.294 47H523V233H569.238V130.974L658.432 233H694V47H648.035Z" fill="#0F6BFF"/>
<path d="M894 47H847.539V147.346C847.539 175.86 831.687 193.681 807.363 193.681C783.039 193.681 767.461 175.86 767.461 147.346V47H721V146.524C721 204.374 754.343 237 807.363 237C860.657 237 894 204.374 894 146.524V47Z" fill="#0F6BFF"/>
<path d="M999.183 44C955.448 44 925.38 66.9632 925.38 104.142C925.38 133.666 942.601 150.341 979.229 158.269L1009.84 164.83C1025.97 167.837 1029.52 174.671 1029.52 181.232C1029.52 191.62 1019.68 197.908 1003.28 197.908C981.416 197.908 967.475 187.52 964.469 171.118H918C922.374 217.044 960.095 237 1001.92 237C1048.39 237 1079 214.037 1079 176.858C1079 144.874 1057.13 130.932 1022.96 123.824L996.997 118.357C982.236 115.35 974.582 110.703 974.582 100.041C974.582 88.0127 985.243 81.7252 1001.64 81.7252C1021.32 81.7252 1029.8 91.2932 1032.26 105.235H1078.73C1074.08 55.2082 1029.25 44 999.183 44Z" fill="#0F6BFF"/>
<path d="M1347.18 44C1303.45 44 1273.38 66.9632 1273.38 104.142C1273.38 133.666 1290.6 150.341 1327.23 158.269L1357.84 164.83C1373.97 167.837 1377.52 174.671 1377.52 181.232C1377.52 191.62 1367.68 197.908 1351.28 197.908C1329.42 197.908 1315.48 187.52 1312.47 171.118H1266C1270.37 217.044 1308.1 237 1349.92 237C1396.39 237 1427 214.037 1427 176.858C1427 144.874 1405.13 130.932 1370.96 123.824L1345 118.357C1330.24 115.35 1322.58 110.703 1322.58 100.041C1322.58 88.0127 1333.24 81.7252 1349.64 81.7252C1369.32 81.7252 1377.8 91.2932 1380.26 105.235H1426.73C1422.08 55.2082 1377.25 44 1347.18 44Z" fill="#0F6BFF"/>
<path d="M1214.95 47L1169.36 127.965L1124.05 47H1073L1146.43 176.926V233H1192.84V176.926L1266 47H1214.95Z" fill="#0F6BFF"/>
</svg>
